<?xml version="1.0" encoding="UTF-8"?>
<svg version="1.1" xmlns="http://www.w3.org/2000/svg" width="24" height="24">
<path d="M0 0 C2.375 1.625 2.375 1.625 4 4 C4.61195145 7.6717087 4.48706506 9.28813568 2.375 12.375 C-0.71186432 14.48706506 -2.3282913 14.61195145 -6 14 C-8.375 12.375 -8.375 12.375 -10 10 C-10.61195145 6.3282913 -10.48706506 4.71186432 -8.375 1.625 C-5.28813568 -0.48706506 -3.6717087 -0.61195145 0 0 Z " fill="#7278ED" transform="translate(15,5)"/>
<path d="M0 0 C0.66 0.66 1.32 1.32 2 2 C1.34 2 0.68 2 0 2 C-0.2475 2.5775 -0.495 3.155 -0.75 3.75 C-2.18299988 6.32939979 -3.78424676 8.06121592 -6 10 C-6.66 10 -7.32 10 -8 10 C-8.33 10.66 -8.66 11.32 -9 12 C-10.42041821 9.15916359 -10.31452272 7.14522722 -10 4 C-7.19858725 -0.09437248 -4.83360432 -0.63047013 0 0 Z " fill="#AC43F4" transform="translate(15,5)"/>
<path d="M0 0 C-0.3125 3.375 -0.3125 3.375 -1 7 C-4.22791555 9.1519437 -5.28400809 9.20086443 -9 9 C-8.04663979 7.68388323 -7.08714226 6.37221039 -6.125 5.0625 C-5.59132813 4.33160156 -5.05765625 3.60070312 -4.5078125 2.84765625 C-2.18393235 0 -2.18393235 0 0 0 Z " fill="#4B98E7" transform="translate(19,10)"/>
<path d="M0 0 C0.99 0.33 1.98 0.66 3 1 C2.34 1 1.68 1 1 1 C0.7525 1.5775 0.505 2.155 0.25 2.75 C-1.18299988 5.32939979 -2.78424676 7.06121592 -5 9 C-5.66 9 -6.32 9 -7 9 C-7.33 9.66 -7.66 10.32 -8 11 C-7.49268371 6.60325886 -4.88085945 4.16191891 -2 1 C-1.34 0.67 -0.68 0.34 0 0 Z " fill="#8E5DF1" transform="translate(14,6)"/>
<path d="M0 0 C1.485 0.99 1.485 0.99 3 2 C3 2.66 3 3.32 3 4 C1.68 3.34 0.36 2.68 -1 2 C-0.67 1.34 -0.34 0.68 0 0 Z " fill="#12C9DE" transform="translate(18,17)"/>
<path d="M0 0 C0.66 0.66 1.32 1.32 2 2 C0.02 2.99 0.02 2.99 -2 4 C-1.34 2.68 -0.68 1.36 0 0 Z " fill="#7E6DEE" transform="translate(5,17)"/>
<path d="M0 0 C0.66 0 1.32 0 2 0 C1.34 1.32 0.68 2.64 0 4 C-0.66 3.34 -1.32 2.68 -2 2 C-1.34 1.34 -0.68 0.68 0 0 Z " fill="#7E6DEE" transform="translate(19,3)"/>
<path d="M0 0 C1.98 0.99 1.98 0.99 4 2 C3.34 2.66 2.68 3.32 2 4 C1.34 2.68 0.68 1.36 0 0 Z " fill="#E911FD" transform="translate(3,3)"/>
<path d="M0 0 C0.66 0 1.32 0 2 0 C2 1.32 2 2.64 2 4 C1.34 4 0.68 4 0 4 C0 2.68 0 1.36 0 0 Z " fill="#33AEE5" transform="translate(11,20)"/>
<path d="M0 0 C1.32 0 2.64 0 4 0 C4 0.66 4 1.32 4 2 C2.68 2 1.36 2 0 2 C0 1.34 0 0.68 0 0 Z " fill="#34ADE4" transform="translate(20,11)"/>
<path d="M0 0 C1.32 0 2.64 0 4 0 C4 0.66 4 1.32 4 2 C2.68 2 1.36 2 0 2 C0 1.34 0 0.68 0 0 Z " fill="#C72CF8" transform="translate(0,11)"/>
<path d="M0 0 C0.66 0 1.32 0 2 0 C2 1.32 2 2.64 2 4 C1.34 4 0.68 4 0 4 C0 2.68 0 1.36 0 0 Z " fill="#C82CF8" transform="translate(11,0)"/>
</svg>
