<?xml version="1.0" encoding="UTF-8"?>
<svg version="1.1" xmlns="http://www.w3.org/2000/svg" width="24" height="24">
<path d="M0 0 C-2 4 -2 4 -3.1875 5.875 C-4.36377419 8.95140942 -3.91349151 10.86802912 -3 14 C-0.62427019 17.38084626 0.64396525 17.92879305 4.75 18.75 C5.8225 18.8325 6.895 18.915 8 19 C7.265625 20.94140625 7.265625 20.94140625 6 23 C1.77292704 24.5471087 -2.16737291 24.27754236 -6.375 22.875 C-9.37849231 20.72964835 -10.62821625 19.42945937 -12 16 C-12.54333853 11.10995324 -12.52109104 9.00496129 -10.25 4.625 C-6.83147172 0.63671701 -5.25942751 0 0 0 Z " fill="#494DDC" transform="translate(14,0)"/>
<path d="M0 0 C-1.34978533 2.78043337 -2.81178397 5.43400585 -4.4375 8.0625 C-4.84871094 8.73410156 -5.25992187 9.40570313 -5.68359375 10.09765625 C-6.98768055 11.98219711 -8.25924752 13.50991587 -10 15 C-10.66 15 -11.32 15 -12 15 C-12.45543387 9.30707666 -11.68246386 6.3984985 -8 2 C-4.9744375 -0.08007422 -3.85524891 0 0 0 Z " fill="#3193DE" transform="translate(14,0)"/>
<path d="M0 0 C2.05078125 0.03255208 4.1015625 0.06510417 6.15234375 0.09765625 C5.44140625 2.05078125 5.44140625 2.05078125 4.15234375 4.09765625 C1.98828125 4.70703125 1.98828125 4.70703125 -0.47265625 4.84765625 C-1.28992188 4.904375 -2.1071875 4.96109375 -2.94921875 5.01953125 C-3.57570313 5.0453125 -4.2021875 5.07109375 -4.84765625 5.09765625 C-2.44354091 0.12915121 -2.44354091 0.12915121 0 0 Z " fill="#6006D4" transform="translate(15.84765625,18.90234375)"/>
<path d="M0 0 C0.66 0.66 1.32 1.32 2 2 C1.9375 3.875 1.9375 3.875 1 6 C-1.5625 8.25 -1.5625 8.25 -4 10 C-4.66 8.35 -5.32 6.7 -6 5 C-4.02 3.35 -2.04 1.7 0 0 Z " fill="#3E6ADB" transform="translate(8,10)"/>
<path d="M0 0 C-2.97 2.97 -5.94 5.94 -9 9 C-9.33 8.34 -9.66 7.68 -10 7 C-4.4 -2.2 -4.4 -2.2 0 0 Z " fill="#2BA5E2" transform="translate(12,1)"/>
<path d="M0 0 C0.99 0.66 1.98 1.32 3 2 C1.25 4.0625 1.25 4.0625 -1 6 C-3.25 5.75 -3.25 5.75 -5 5 C-3.35 3.35 -1.7 1.7 0 0 Z " fill="#5034D6" transform="translate(12,17)"/>
<path d="M0 0 C0.99 0 1.98 0 3 0 C2.25 1.9375 2.25 1.9375 1 4 C-1.125 4.75 -1.125 4.75 -3 5 C-1.125 1.125 -1.125 1.125 0 0 Z " fill="#581CD4" transform="translate(14,19)"/>
<path d="M0 0 C0.33 0.99 0.66 1.98 1 3 C-0.62339805 4.70884005 -2.29319053 6.37446717 -4 8 C-4.66 8 -5.32 8 -6 8 C-4.55746343 4.63408134 -2.66735273 2.48952921 0 0 Z " fill="#3682DE" transform="translate(8,7)"/>
</svg>
